<svg xmlns="http://www.w3.org/2000/svg" xmlns:xlink="http://www.w3.org/1999/xlink" width="500" zoomAndPan="magnify" viewBox="0 0 375 374.999991" height="500" preserveAspectRatio="xMidYMid meet" version="1.0"><defs><g/><clipPath id="187c3a3474"><path d="M 260.839844 170.777344 L 310.28125 170.777344 L 310.28125 220.207031 L 260.839844 220.207031 Z M 260.839844 170.777344 " clip-rule="nonzero"/></clipPath><clipPath id="6661aebce2"><path d="M 260.640625 170.777344 L 310.140625 170.777344 L 310.140625 220.277344 L 260.640625 220.277344 Z M 260.640625 170.777344 " clip-rule="nonzero"/></clipPath><clipPath id="72728b69c3"><path d="M 259.230469 191.59375 L 311.890625 191.59375 L 311.890625 199.507812 L 259.230469 199.507812 Z M 259.230469 191.59375 " clip-rule="nonzero"/></clipPath></defs><rect x="-37.5" width="450" fill="#ffffff" y="-37.499999" height="449.999989" fill-opacity="1"/><rect x="-37.5" width="450" fill="#ffffff" y="-37.499999" height="449.999989" fill-opacity="1"/><rect x="-37.5" width="450" fill="#ffffff" y="-37.499999" height="449.999989" fill-opacity="1"/><g clip-path="url(#187c3a3474)"><path fill="#004aad" d="M 260.839844 199.28125 L 260.839844 216.652344 L 266.566406 211.035156 C 271.09375 216.609375 277.964844 220.179688 285.671875 220.179688 C 299.277344 220.179688 310.339844 209.09375 310.339844 195.453125 C 310.339844 181.824219 299.277344 170.738281 285.671875 170.738281 C 273.171875 170.738281 262.847656 180.125 261.25 192.21875 L 268.378906 192.21875 C 269.90625 184.035156 277.0625 177.796875 285.660156 177.796875 C 295.375 177.796875 303.265625 185.722656 303.265625 195.453125 C 303.265625 205.191406 295.363281 213.105469 285.660156 213.105469 C 279.917969 213.105469 274.867188 210.296875 271.65625 206.015625 L 278.546875 199.265625 L 260.839844 199.265625 Z M 260.839844 199.28125 " fill-opacity="1" fill-rule="nonzero"/></g><g fill="#004aad" fill-opacity="1"><g transform="translate(63.108231, 218.860202)"><g><path d="M 20.359375 -50.71875 L 0.359375 -50.71875 L 0.359375 -62.5 L 54.828125 -62.5 L 54.828125 -50.71875 L 34.828125 -50.71875 L 34.828125 0 L 20.359375 0 Z M 20.359375 -50.71875 "/></g></g></g><g fill="#004aad" fill-opacity="1"><g transform="translate(113.10414, 218.860202)"><g><path d="M 19.734375 -41.703125 C 21.398438 -44.023438 23.644531 -45.78125 26.46875 -46.96875 C 29.300781 -48.15625 32.5625 -48.75 36.25 -48.75 L 36.25 -35.890625 C 34.707031 -36.015625 33.664062 -36.078125 33.125 -36.078125 C 29.132812 -36.078125 26.007812 -34.957031 23.75 -32.71875 C 21.488281 -30.488281 20.359375 -27.144531 20.359375 -22.6875 L 20.359375 0 L 6.421875 0 L 6.421875 -48.046875 L 19.734375 -48.046875 Z M 19.734375 -41.703125 "/></g></g></g><g fill="#004aad" fill-opacity="1"><g transform="translate(146.404507, 218.860202)"><g><path d="M 6.421875 -48.046875 L 20.359375 -48.046875 L 20.359375 0 L 6.421875 0 Z M 13.40625 -54.734375 C 10.84375 -54.734375 8.753906 -55.476562 7.140625 -56.96875 C 5.535156 -58.457031 4.734375 -60.300781 4.734375 -62.5 C 4.734375 -64.707031 5.535156 -66.554688 7.140625 -68.046875 C 8.753906 -69.535156 10.84375 -70.28125 13.40625 -70.28125 C 15.957031 -70.28125 18.035156 -69.5625 19.640625 -68.125 C 21.253906 -66.695312 22.0625 -64.914062 22.0625 -62.78125 C 22.0625 -60.457031 21.253906 -58.535156 19.640625 -57.015625 C 18.035156 -55.492188 15.957031 -54.734375 13.40625 -54.734375 Z M 13.40625 -54.734375 "/></g></g></g><g fill="#004aad" fill-opacity="1"><g transform="translate(168.098374, 218.860202)"><g><path d="M 34.828125 -48.75 C 39.285156 -48.75 43.34375 -47.722656 47 -45.671875 C 50.664062 -43.617188 53.539062 -40.734375 55.625 -37.015625 C 57.707031 -33.296875 58.75 -28.960938 58.75 -24.015625 C 58.75 -19.078125 57.707031 -14.75 55.625 -11.03125 C 53.539062 -7.3125 50.664062 -4.421875 47 -2.359375 C 43.34375 -0.304688 39.285156 0.71875 34.828125 0.71875 C 28.691406 0.71875 23.867188 -1.21875 20.359375 -5.09375 L 20.359375 17.328125 L 6.421875 17.328125 L 6.421875 -48.046875 L 19.734375 -48.046875 L 19.734375 -42.5 C 23.179688 -46.664062 28.210938 -48.75 34.828125 -48.75 Z M 32.421875 -10.71875 C 35.984375 -10.71875 38.910156 -11.921875 41.203125 -14.328125 C 43.492188 -16.742188 44.640625 -19.972656 44.640625 -24.015625 C 44.640625 -28.066406 43.492188 -31.296875 41.203125 -33.703125 C 38.910156 -36.117188 35.984375 -37.328125 32.421875 -37.328125 C 28.847656 -37.328125 25.914062 -36.117188 23.625 -33.703125 C 21.332031 -31.296875 20.1875 -28.066406 20.1875 -24.015625 C 20.1875 -19.972656 21.332031 -16.742188 23.625 -14.328125 C 25.914062 -11.921875 28.847656 -10.71875 32.421875 -10.71875 Z M 32.421875 -10.71875 "/></g></g></g><g fill="#004aad" fill-opacity="1"><g transform="translate(224.522501, 218.860202)"><g><path d="M 19.734375 -41.703125 C 21.398438 -44.023438 23.644531 -45.78125 26.46875 -46.96875 C 29.300781 -48.15625 32.5625 -48.75 36.25 -48.75 L 36.25 -35.890625 C 34.707031 -36.015625 33.664062 -36.078125 33.125 -36.078125 C 29.132812 -36.078125 26.007812 -34.957031 23.75 -32.71875 C 21.488281 -30.488281 20.359375 -27.144531 20.359375 -22.6875 L 20.359375 0 L 6.421875 0 L 6.421875 -48.046875 L 19.734375 -48.046875 Z M 19.734375 -41.703125 "/></g></g></g><g clip-path="url(#6661aebce2)"><path fill="#004aad" d="M 310.140625 191.707031 L 310.140625 174.335938 L 304.410156 179.953125 C 299.886719 174.378906 293.011719 170.808594 285.304688 170.808594 C 271.699219 170.808594 260.640625 181.894531 260.640625 195.535156 C 260.640625 209.164062 271.699219 220.25 285.304688 220.25 C 297.808594 220.25 308.132812 210.863281 309.730469 198.769531 L 302.601562 198.769531 C 301.074219 206.949219 293.917969 213.191406 285.320312 213.191406 C 275.601562 213.191406 267.710938 205.261719 267.710938 195.535156 C 267.710938 185.792969 275.617188 177.882812 285.320312 177.882812 C 291.0625 177.882812 296.109375 180.691406 299.320312 184.972656 L 292.433594 191.722656 L 310.140625 191.722656 Z M 310.140625 191.707031 " fill-opacity="1" fill-rule="nonzero"/></g><g clip-path="url(#72728b69c3)"><path fill="#ffffff" d="M 259.230469 191.59375 L 312 191.59375 L 312 199.289062 L 259.230469 199.289062 Z M 259.230469 191.59375 " fill-opacity="1" fill-rule="nonzero"/></g></svg>