<svg xmlns="http://www.w3.org/2000/svg" xmlns:xlink="http://www.w3.org/1999/xlink" width="332" zoomAndPan="magnify" viewBox="0 0 249 106.499997" height="142" preserveAspectRatio="xMidYMid meet" version="1.0"><defs><g/><clipPath id="8476b1684a"><path d="M 197.496094 36.359375 L 246.707031 36.359375 L 246.707031 85.558594 L 197.496094 85.558594 Z M 197.496094 36.359375 " clip-rule="nonzero"/></clipPath><clipPath id="4ce45728fe"><path d="M 197.296875 36.359375 L 246.566406 36.359375 L 246.566406 85.628906 L 197.296875 85.628906 Z M 197.296875 36.359375 " clip-rule="nonzero"/></clipPath><clipPath id="5a9f4208b0"><path d="M 195.898438 57.078125 L 248.308594 57.078125 L 248.308594 64.953125 L 195.898438 64.953125 Z M 195.898438 57.078125 " clip-rule="nonzero"/></clipPath></defs><g clip-path="url(#8476b1684a)"><path fill="#004aad" d="M 197.496094 64.726562 L 197.496094 82.015625 L 203.199219 76.425781 C 207.703125 81.972656 214.542969 85.53125 222.214844 85.53125 C 235.757812 85.53125 246.765625 74.492188 246.765625 60.914062 C 246.765625 47.351562 235.757812 36.316406 222.214844 36.316406 C 209.769531 36.316406 199.496094 45.660156 197.90625 57.699219 L 205 57.699219 C 206.519531 49.554688 213.640625 43.34375 222.199219 43.34375 C 231.871094 43.34375 239.726562 51.234375 239.726562 60.914062 C 239.726562 70.613281 231.859375 78.488281 222.199219 78.488281 C 216.484375 78.488281 211.460938 75.691406 208.265625 71.429688 L 215.121094 64.710938 L 197.496094 64.710938 Z M 197.496094 64.726562 " fill-opacity="1" fill-rule="nonzero"/></g><g fill="#004aad" fill-opacity="1"><g transform="translate(0.689501, 84.214826)"><g><path d="M 20.265625 -50.484375 L 0.359375 -50.484375 L 0.359375 -62.21875 L 54.578125 -62.21875 L 54.578125 -50.484375 L 34.671875 -50.484375 L 34.671875 0 L 20.265625 0 Z M 20.265625 -50.484375 "/></g></g></g><g fill="#004aad" fill-opacity="1"><g transform="translate(50.451784, 84.214826)"><g><path d="M 19.640625 -41.515625 C 21.304688 -43.828125 23.546875 -45.570312 26.359375 -46.75 C 29.171875 -47.9375 32.414062 -48.53125 36.09375 -48.53125 L 36.09375 -35.734375 C 34.550781 -35.847656 33.515625 -35.90625 32.984375 -35.90625 C 29.003906 -35.90625 25.890625 -34.796875 23.640625 -32.578125 C 21.390625 -30.359375 20.265625 -27.023438 20.265625 -22.578125 L 20.265625 0 L 6.40625 0 L 6.40625 -47.828125 L 19.640625 -47.828125 Z M 19.640625 -41.515625 "/></g></g></g><g fill="#004aad" fill-opacity="1"><g transform="translate(83.596542, 84.214826)"><g><path d="M 6.40625 -47.828125 L 20.265625 -47.828125 L 20.265625 0 L 6.40625 0 Z M 13.328125 -54.484375 C 10.785156 -54.484375 8.710938 -55.222656 7.109375 -56.703125 C 5.503906 -58.191406 4.703125 -60.03125 4.703125 -62.21875 C 4.703125 -64.414062 5.503906 -66.253906 7.109375 -67.734375 C 8.710938 -69.210938 10.785156 -69.953125 13.328125 -69.953125 C 15.878906 -69.953125 17.953125 -69.238281 19.546875 -67.8125 C 21.148438 -66.394531 21.953125 -64.617188 21.953125 -62.484375 C 21.953125 -60.171875 21.148438 -58.257812 19.546875 -56.75 C 17.953125 -55.238281 15.878906 -54.484375 13.328125 -54.484375 Z M 13.328125 -54.484375 "/></g></g></g><g fill="#004aad" fill-opacity="1"><g transform="translate(105.189035, 84.214826)"><g><path d="M 34.671875 -48.53125 C 39.109375 -48.53125 43.148438 -47.507812 46.796875 -45.46875 C 50.441406 -43.425781 53.300781 -40.550781 55.375 -36.84375 C 57.445312 -33.144531 58.484375 -28.832031 58.484375 -23.90625 C 58.484375 -18.988281 57.445312 -14.675781 55.375 -10.96875 C 53.300781 -7.269531 50.441406 -4.394531 46.796875 -2.34375 C 43.148438 -0.300781 39.109375 0.71875 34.671875 0.71875 C 28.566406 0.71875 23.765625 -1.207031 20.265625 -5.0625 L 20.265625 17.25 L 6.40625 17.25 L 6.40625 -47.828125 L 19.640625 -47.828125 L 19.640625 -42.3125 C 23.078125 -46.457031 28.085938 -48.53125 34.671875 -48.53125 Z M 32.265625 -10.671875 C 35.816406 -10.671875 38.734375 -11.867188 41.015625 -14.265625 C 43.296875 -16.660156 44.4375 -19.875 44.4375 -23.90625 C 44.4375 -27.9375 43.296875 -31.148438 41.015625 -33.546875 C 38.734375 -35.953125 35.816406 -37.15625 32.265625 -37.15625 C 28.710938 -37.15625 25.796875 -35.953125 23.515625 -33.546875 C 21.234375 -31.148438 20.09375 -27.9375 20.09375 -23.90625 C 20.09375 -19.875 21.234375 -16.660156 23.515625 -14.265625 C 25.796875 -11.867188 28.710938 -10.671875 32.265625 -10.671875 Z M 32.265625 -10.671875 "/></g></g></g><g fill="#004aad" fill-opacity="1"><g transform="translate(161.349497, 84.214826)"><g><path d="M 19.640625 -41.515625 C 21.304688 -43.828125 23.546875 -45.570312 26.359375 -46.75 C 29.171875 -47.9375 32.414062 -48.53125 36.09375 -48.53125 L 36.09375 -35.734375 C 34.550781 -35.847656 33.515625 -35.90625 32.984375 -35.90625 C 29.003906 -35.90625 25.890625 -34.796875 23.640625 -32.578125 C 21.390625 -30.359375 20.265625 -27.023438 20.265625 -22.578125 L 20.265625 0 L 6.40625 0 L 6.40625 -47.828125 L 19.640625 -47.828125 Z M 19.640625 -41.515625 "/></g></g></g><g clip-path="url(#4ce45728fe)"><path fill="#004aad" d="M 246.566406 57.1875 L 246.566406 39.898438 L 240.867188 45.488281 C 236.359375 39.941406 229.519531 36.386719 221.847656 36.386719 C 208.304688 36.386719 197.296875 47.421875 197.296875 61 C 197.296875 74.5625 208.304688 85.601562 221.847656 85.601562 C 234.292969 85.601562 244.566406 76.257812 246.160156 64.21875 L 239.0625 64.21875 C 237.542969 72.359375 230.421875 78.570312 221.863281 78.570312 C 212.191406 78.570312 204.335938 70.683594 204.335938 61 C 204.335938 51.304688 212.207031 43.429688 221.863281 43.429688 C 227.578125 43.429688 232.601562 46.222656 235.796875 50.484375 L 228.941406 57.203125 L 246.566406 57.203125 Z M 246.566406 57.1875 " fill-opacity="1" fill-rule="nonzero"/></g><g clip-path="url(#5a9f4208b0)"><path fill="#ffffff" d="M 195.898438 57.078125 L 248.417969 57.078125 L 248.417969 64.738281 L 195.898438 64.738281 Z M 195.898438 57.078125 " fill-opacity="1" fill-rule="nonzero"/></g></svg>